STARTFONT 2.1
FONT -FontForge-Bitstream Vera Sans Mono-Book-R-Normal-SansMono--16-150-75-75-P-99-ISO8859-1
SIZE 15 75 75
FONTBOUNDINGBOX 11 19 0 -4
COMMENT "Generated by fontforge, http://fontforge.sourceforge.net"
COMMENT "Copyright (c) 2003 by Bitstream, Inc. All Rights Reserved."
STARTPROPERTIES 40
FOUNDRY "FontForge"
FAMILY_NAME "Bitstream Vera Sans Mono"
WEIGHT_NAME "Book"
SLANT "R"
SETWIDTH_NAME "Normal"
ADD_STYLE_NAME "SansMono"
PIXEL_SIZE 16
POINT_SIZE 150
RESOLUTION_X 75
RESOLUTION_Y 75
SPACING "P"
AVERAGE_WIDTH 99
CHARSET_REGISTRY "ISO8859"
CHARSET_ENCODING "1"
FONTNAME_REGISTRY ""
CHARSET_COLLECTIONS "ISO8859-9 ISOLatin1Encoding"
FONT_NAME "BitstreamVeraSansMono-Roman"
FACE_NAME "Bitstream Vera Sans Mono"
COPYRIGHT "Copyright (c) 2003 by Bitstream, Inc. All Rights Reserved."
FONT_VERSION "Release 1.10"
FONT_ASCENT 12
FONT_DESCENT 4
UNDERLINE_POSITION -2
UNDERLINE_THICKNESS 2
X_HEIGHT 8
CAP_HEIGHT 11
RAW_ASCENT 759
RAW_DESCENT 240
NORM_SPACE 10
RELATIVE_WEIGHT 40
RELATIVE_SETWIDTH 50
SUPERSCRIPT_X 0
SUPERSCRIPT_Y 4
SUPERSCRIPT_SIZE 9
SUBSCRIPT_X 0
SUBSCRIPT_Y -3
SUBSCRIPT_SIZE 9
FIGURE_WIDTH 10
AVG_LOWERCASE_WIDTH 100
AVG_UPPERCASE_WIDTH 100
ENDPROPERTIES
CHARS 269
STARTCHAR space
ENCODING 32
SWIDTH 602 0
DWIDTH 10 0
BBX 1 1 0 0
BITMAP
00
ENDCHAR
STARTCHAR exclam
ENCODING 33
SWIDTH 602 0
DWIDTH 10 0
BBX 1 12 4 0
BITMAP
80
80
80
80
80
80
80
80
00
00
80
80
ENDCHAR
STARTCHAR quotedbl
ENCODING 34
SWIDTH 602 0
DWIDTH 10 0
BBX 4 4 3 8
BITMAP
90
90
90
90
ENDCHAR
STARTCHAR numbersign
ENCODING 35
SWIDTH 602 0
DWIDTH 10 0
BBX 10 11 0 0
BITMAP
0980
0900
0900
7FC0
1300
1200
1200
FF80
2600
2400
6400
ENDCHAR
STARTCHAR dollar
ENCODING 36
SWIDTH 602 0
DWIDTH 10 0
BBX 7 14 2 -2
BITMAP
10
10
7C
D2
90
90
70
1C
12
12
92
7C
10
10
ENDCHAR
STARTCHAR percent
ENCODING 37
SWIDTH 602 0
DWIDTH 10 0
BBX 9 12 0 0
BITMAP
7000
8800
8800
8800
7100
0600
1800
6700
0880
0880
0880
0700
ENDCHAR
STARTCHAR ampersand
ENCODING 38
SWIDTH 602 0
DWIDTH 10 0
BBX 8 12 1 0
BITMAP
3C
40
40
40
20
50
D9
89
85
86
46
3D
ENDCHAR
STARTCHAR quotesingle
ENCODING 39
SWIDTH 602 0
DWIDTH 10 0
BBX 1 4 4 8
BITMAP
80
80
80
80
ENDCHAR
STARTCHAR parenleft
ENCODING 40
SWIDTH 602 0
DWIDTH 10 0
BBX 4 14 3 -2
BITMAP
30
60
40
40
80
80
80
80
80
80
40
40
60
30
ENDCHAR
STARTCHAR parenright
ENCODING 41
SWIDTH 602 0
DWIDTH 10 0
BBX 4 14 2 -2
BITMAP
C0
60
20
20
10
10
10
10
10
10
20
20
60
C0
ENDCHAR
STARTCHAR asterisk
ENCODING 42
SWIDTH 602 0
DWIDTH 10 0
BBX 7 8 1 4
BITMAP
10
10
92
7C
38
D6
10
10
ENDCHAR
STARTCHAR plus
ENCODING 43
SWIDTH 602 0
DWIDTH 10 0
BBX 7 7 1 1
BITMAP
10
10
10
FE
10
10
10
ENDCHAR
STARTCHAR comma
ENCODING 44
SWIDTH 602 0
DWIDTH 10 0
BBX 3 5 3 -3
BITMAP
60
60
60
C0
80
ENDCHAR
STARTCHAR hyphen
ENCODING 45
SWIDTH 602 0
DWIDTH 10 0
BBX 4 1 3 4
BITMAP
F0
ENDCHAR
STARTCHAR period
ENCODING 46
SWIDTH 602 0
DWIDTH 10 0
BBX 2 2 4 0
BITMAP
C0
C0
ENDCHAR
STARTCHAR slash
ENCODING 47
SWIDTH 602 0
DWIDTH 10 0
BBX 7 13 1 -1
BITMAP
02
04
04
08
08
10
10
10
20
20
40
40
80
ENDCHAR
STARTCHAR zero
ENCODING 48
SWIDTH 602 0
DWIDTH 10 0
BBX 8 12 1 0
BITMAP
3C
42
42
81
81
99
99
81
81
42
42
3C
ENDCHAR
STARTCHAR one
ENCODING 49
SWIDTH 602 0
DWIDTH 10 0
BBX 6 12 2 0
BITMAP
70
D0
10
10
10
10
10
10
10
10
10
7C
ENDCHAR
STARTCHAR two
ENCODING 50
SWIDTH 602 0
DWIDTH 10 0
BBX 8 12 1 0
BITMAP
7C
C2
81
01
01
02
04
08
10
20
60
FF
ENDCHAR
STARTCHAR three
ENCODING 51
SWIDTH 602 0
DWIDTH 10 0
BBX 8 12 1 0
BITMAP
7C
82
01
01
03
3C
02
01
01
01
82
7C
ENDCHAR
STARTCHAR four
ENCODING 52
SWIDTH 602 0
DWIDTH 10 0
BBX 8 12 1 0
BITMAP
0C
1C
14
34
24
44
44
84
FF
04
04
04
ENDCHAR
STARTCHAR five
ENCODING 53
SWIDTH 602 0
DWIDTH 10 0
BBX 8 12 1 0
BITMAP
7E
40
40
40
7C
42
01
01
01
01
82
7C
ENDCHAR
STARTCHAR six
ENCODING 54
SWIDTH 602 0
DWIDTH 10 0
BBX 8 12 1 0
BITMAP
3C
62
40
80
BC
C2
81
81
81
81
42
3C
ENDCHAR
STARTCHAR seven
ENCODING 55
SWIDTH 602 0
DWIDTH 10 0
BBX 8 12 1 0
BITMAP
FF
01
02
02
04
04
08
08
08
10
10
20
ENDCHAR
STARTCHAR eight
ENCODING 56
SWIDTH 602 0
DWIDTH 10 0
BBX 8 12 1 0
BITMAP
3C
C3
81
81
C3
3C
43
81
81
81
42
3C
ENDCHAR
STARTCHAR nine
ENCODING 57
SWIDTH 602 0
DWIDTH 10 0
BBX 8 12 1 0
BITMAP
3C
42
81
81
81
81
43
3D
01
02
46
3C
ENDCHAR
STARTCHAR colon
ENCODING 58
SWIDTH 602 0
DWIDTH 10 0
BBX 2 8 4 0
BITMAP
C0
C0
00
00
00
00
C0
C0
ENDCHAR
STARTCHAR semicolon
ENCODING 59
SWIDTH 602 0
DWIDTH 10 0
BBX 3 11 3 -3
BITMAP
60
60
00
00
00
00
60
60
60
C0
80
ENDCHAR
STARTCHAR less
ENCODING 60
SWIDTH 602 0
DWIDTH 10 0
BBX 8 8 1 1
BITMAP
01
0F
38
E0
E0
38
0F
01
ENDCHAR
STARTCHAR equal
ENCODING 61
SWIDTH 602 0
DWIDTH 10 0
BBX 8 4 1 3
BITMAP
FF
00
00
FF
ENDCHAR
STARTCHAR greater
ENCODING 62
SWIDTH 602 0
DWIDTH 10 0
BBX 8 8 1 1
BITMAP
80
F0
1C
07
07
1C
F0
80
ENDCHAR
STARTCHAR question
ENCODING 63
SWIDTH 602 0
DWIDTH 10 0
BBX 6 12 2 0
BITMAP
78
8C
04
04
0C
18
20
20
20
00
20
20
ENDCHAR
STARTCHAR at
ENCODING 64
SWIDTH 602 0
DWIDTH 10 0
BBX 8 14 1 -3
BITMAP
1E
23
41
4F
9B
91
91
91
91
9B
4F
40
20
1E
ENDCHAR
STARTCHAR A
ENCODING 65
SWIDTH 602 0
DWIDTH 10 0
BBX 8 12 1 0
BITMAP
18
18
3C
24
24
24
42
42
7E
42
81
81
ENDCHAR
STARTCHAR B
ENCODING 66
SWIDTH 602 0
DWIDTH 10 0
BBX 8 12 1 0
BITMAP
FC
83
81
81
83
FC
83
81
81
81
83
FC
ENDCHAR
STARTCHAR C
ENCODING 67
SWIDTH 602 0
DWIDTH 10 0
BBX 8 12 1 0
BITMAP
1E
63
40
80
80
80
80
80
80
40
63
1E
ENDCHAR
STARTCHAR D
ENCODING 68
SWIDTH 602 0
DWIDTH 10 0
BBX 8 12 1 0
BITMAP
F8
86
82
81
81
81
81
81
81
82
86
F8
ENDCHAR
STARTCHAR E
ENCODING 69
SWIDTH 602 0
DWIDTH 10 0
BBX 8 12 1 0
BITMAP
FF
80
80
80
80
FF
80
80
80
80
80
FF
ENDCHAR
STARTCHAR F
ENCODING 70
SWIDTH 602 0
DWIDTH 10 0
BBX 8 12 1 0
BITMAP
FF
80
80
80
80
FE
80
80
80
80
80
80
ENDCHAR
STARTCHAR G
ENCODING 71
SWIDTH 602 0
DWIDTH 10 0
BBX 8 12 1 0
BITMAP
1E
63
40
80
80
80
87
81
81
41
61
1E
ENDCHAR
STARTCHAR H
ENCODING 72
SWIDTH 602 0
DWIDTH 10 0
BBX 8 12 1 0
BITMAP
81
81
81
81
81
FF
81
81
81
81
81
81
ENDCHAR
STARTCHAR I
ENCODING 73
SWIDTH 602 0
DWIDTH 10 0
BBX 5 12 2 0
BITMAP
F8
20
20
20
20
20
20
20
20
20
20
F8
ENDCHAR
STARTCHAR J
ENCODING 74
SWIDTH 602 0
DWIDTH 10 0
BBX 7 12 1 0
BITMAP
1E
02
02
02
02
02
02
02
02
02
C4
7C
ENDCHAR
STARTCHAR K
ENCODING 75
SWIDTH 602 0
DWIDTH 10 0
BBX 8 12 1 0
BITMAP
82
84
88
90
A0
D0
90
88
84
84
82
81
ENDCHAR
STARTCHAR L
ENCODING 76
SWIDTH 602 0
DWIDTH 10 0
BBX 8 12 1 0
BITMAP
80
80
80
80
80
80
80
80
80
80
80
FF
ENDCHAR
STARTCHAR M
ENCODING 77
SWIDTH 602 0
DWIDTH 10 0
BBX 8 12 1 0
BITMAP
C3
C3
E7
A5
A5
99
99
99
81
81
81
81
ENDCHAR
STARTCHAR N
ENCODING 78
SWIDTH 602 0
DWIDTH 10 0
BBX 8 12 1 0
BITMAP
C1
C1
A1
A1
91
91
89
89
85
85
83
83
ENDCHAR
STARTCHAR O
ENCODING 79
SWIDTH 602 0
DWIDTH 10 0
BBX 8 12 1 0
BITMAP
3C
42
C3
81
81
81
81
81
81
C3
42
3C
ENDCHAR
STARTCHAR P
ENCODING 80
SWIDTH 602 0
DWIDTH 10 0
BBX 8 12 1 0
BITMAP
FC
82
81
81
81
82
FC
80
80
80
80
80
ENDCHAR
STARTCHAR Q
ENCODING 81
SWIDTH 602 0
DWIDTH 10 0
BBX 8 14 1 -2
BITMAP
3C
42
C2
81
81
81
81
81
81
C3
42
3E
06
02
ENDCHAR
STARTCHAR R
ENCODING 82
SWIDTH 602 0
DWIDTH 10 0
BBX 9 12 1 0
BITMAP
FC00
8200
8100
8100
8100
8300
FC00
8200
8100
8100
8100
8080
ENDCHAR
STARTCHAR S
ENCODING 83
SWIDTH 602 0
DWIDTH 10 0
BBX 8 12 1 0
BITMAP
3C
46
80
80
80
70
1E
01
01
81
C3
7C
ENDCHAR
STARTCHAR T
ENCODING 84
SWIDTH 602 0
DWIDTH 10 0
BBX 9 12 0 0
BITMAP
FF80
0800
0800
0800
0800
0800
0800
0800
0800
0800
0800
0800
ENDCHAR
STARTCHAR U
ENCODING 85
SWIDTH 602 0
DWIDTH 10 0
BBX 8 12 1 0
BITMAP
81
81
81
81
81
81
81
81
81
81
42
3C
ENDCHAR
STARTCHAR V
ENCODING 86
SWIDTH 602 0
DWIDTH 10 0
BBX 8 12 1 0
BITMAP
81
81
42
42
42
42
24
24
24
3C
18
18
ENDCHAR
STARTCHAR W
ENCODING 87
SWIDTH 602 0
DWIDTH 10 0
BBX 10 12 0 0
BITMAP
8040
8040
8040
4C80
4C80
4C80
4C80
5280
5280
5280
2100
2100
ENDCHAR
STARTCHAR X
ENCODING 88
SWIDTH 602 0
DWIDTH 10 0
BBX 8 12 1 0
BITMAP
81
42
42
24
24
18
18
24
24
42
42
81
ENDCHAR
STARTCHAR Y
ENCODING 89
SWIDTH 602 0
DWIDTH 10 0
BBX 9 12 0 0
BITMAP
8080
4100
2200
2200
1400
1400
0800
0800
0800
0800
0800
0800
ENDCHAR
STARTCHAR Z
ENCODING 90
SWIDTH 602 0
DWIDTH 10 0
BBX 8 12 1 0
BITMAP
FF
01
02
04
0C
08
10
30
20
40
80
FF
ENDCHAR
STARTCHAR bracketleft
ENCODING 91
SWIDTH 602 0
DWIDTH 10 0
BBX 3 14 4 -2
BITMAP
E0
80
80
80
80
80
80
80
80
80
80
80
80
E0
ENDCHAR
STARTCHAR backslash
ENCODING 92
SWIDTH 602 0
DWIDTH 10 0
BBX 7 13 1 -1
BITMAP
80
40
40
20
20
10
10
10
08
08
04
04
02
ENDCHAR
STARTCHAR bracketright
ENCODING 93
SWIDTH 602 0
DWIDTH 10 0
BBX 3 14 3 -2
BITMAP
E0
20
20
20
20
20
20
20
20
20
20
20
20
E0
ENDCHAR
STARTCHAR asciicircum
ENCODING 94
SWIDTH 602 0
DWIDTH 10 0
BBX 9 4 1 8
BITMAP
1C00
3600
6300
C180
ENDCHAR
STARTCHAR underscore
ENCODING 95
SWIDTH 602 0
DWIDTH 10 0
BBX 8 1 0 -4
BITMAP
FF
ENDCHAR
STARTCHAR grave
ENCODING 96
SWIDTH 602 0
DWIDTH 10 0
BBX 4 3 2 10
BITMAP
C0
60
30
ENDCHAR
STARTCHAR a
ENCODING 97
SWIDTH 602 0
DWIDTH 10 0
BBX 8 9 1 0
BITMAP
3E
43
01
3F
C1
81
83
C7
7D
ENDCHAR
STARTCHAR b
ENCODING 98
SWIDTH 602 0
DWIDTH 10 0
BBX 8 12 1 0
BITMAP
80
80
80
BC
C2
81
81
81
81
81
C2
BC
ENDCHAR
STARTCHAR c
ENCODING 99
SWIDTH 602 0
DWIDTH 10 0
BBX 7 9 1 0
BITMAP
3C
42
80
80
80
80
80
42
3C
ENDCHAR
STARTCHAR d
ENCODING 100
SWIDTH 602 0
DWIDTH 10 0
BBX 8 12 1 0
BITMAP
01
01
01
3D
43
81
81
81
81
81
43
3D
ENDCHAR
STARTCHAR e
ENCODING 101
SWIDTH 602 0
DWIDTH 10 0
BBX 8 9 1 0
BITMAP
3C
42
81
81
FF
80
80
41
3E
ENDCHAR
STARTCHAR f
ENCODING 102
SWIDTH 602 0
DWIDTH 10 0
BBX 6 12 2 0
BITMAP
1C
20
20
FC
20
20
20
20
20
20
20
20
ENDCHAR
STARTCHAR g
ENCODING 103
SWIDTH 602 0
DWIDTH 10 0
BBX 8 12 1 -3
BITMAP
3D
43
81
81
81
81
81
43
3D
01
42
3C
ENDCHAR
STARTCHAR h
ENCODING 104
SWIDTH 602 0
DWIDTH 10 0
BBX 8 12 1 0
BITMAP
80
80
80
BE
C3
81
81
81
81
81
81
81
ENDCHAR
STARTCHAR i
ENCODING 105
SWIDTH 602 0
DWIDTH 10 0
BBX 7 12 1 0
BITMAP
10
10
00
70
10
10
10
10
10
10
10
FE
ENDCHAR
STARTCHAR j
ENCODING 106
SWIDTH 602 0
DWIDTH 10 0
BBX 4 15 2 -3
BITMAP
10
10
00
70
10
10
10
10
10
10
10
10
10
10
E0
ENDCHAR
STARTCHAR k
ENCODING 107
SWIDTH 602 0
DWIDTH 10 0
BBX 8 12 1 0
BITMAP
80
80
80
84
88
90
A0
D0
88
84
82
81
ENDCHAR
STARTCHAR l
ENCODING 108
SWIDTH 602 0
DWIDTH 10 0
BBX 7 12 1 0
BITMAP
F0
10
10
10
10
10
10
10
10
10
10
0E
ENDCHAR
STARTCHAR m
ENCODING 109
SWIDTH 602 0
DWIDTH 10 0
BBX 7 9 2 0
BITMAP
FC
92
92
92
92
92
92
92
92
ENDCHAR
STARTCHAR n
ENCODING 110
SWIDTH 602 0
DWIDTH 10 0
BBX 8 9 1 0
BITMAP
BE
C3
81
81
81
81
81
81
81
ENDCHAR
STARTCHAR o
ENCODING 111
SWIDTH 602 0
DWIDTH 10 0
BBX 8 9 1 0
BITMAP
3C
42
81
81
81
81
81
42
3C
ENDCHAR
STARTCHAR p
ENCODING 112
SWIDTH 602 0
DWIDTH 10 0
BBX 8 12 1 -3
BITMAP
BC
C2
81
81
81
81
81
C2
BC
80
80
80
ENDCHAR
STARTCHAR q
ENCODING 113
SWIDTH 602 0
DWIDTH 10 0
BBX 8 12 1 -3
BITMAP
3D
43
81
81
81
81
81
43
3D
01
01
01
ENDCHAR
STARTCHAR r
ENCODING 114
SWIDTH 602 0
DWIDTH 10 0
BBX 6 9 3 0
BITMAP
B8
C4
80
80
80
80
80
80
80
ENDCHAR
STARTCHAR s
ENCODING 115
SWIDTH 602 0
DWIDTH 10 0
BBX 8 9 1 0
BITMAP
3E
C1
80
C0
7E
03
01
83
7C
ENDCHAR
STARTCHAR t
ENCODING 116
SWIDTH 602 0
DWIDTH 10 0
BBX 6 11 1 0
BITMAP
20
20
FC
20
20
20
20
20
20
20
1C
ENDCHAR
STARTCHAR u
ENCODING 117
SWIDTH 602 0
DWIDTH 10 0
BBX 8 9 1 0
BITMAP
81
81
81
81
81
81
81
C3
7D
ENDCHAR
STARTCHAR v
ENCODING 118
SWIDTH 602 0
DWIDTH 10 0
BBX 8 9 1 0
BITMAP
81
42
42
42
24
24
24
18
18
ENDCHAR
STARTCHAR w
ENCODING 119
SWIDTH 602 0
DWIDTH 10 0
BBX 10 9 0 0
BITMAP
8040
8040
4C80
4C80
5480
5280
5280
2100
2100
ENDCHAR
STARTCHAR x
ENCODING 120
SWIDTH 602 0
DWIDTH 10 0
BBX 8 9 1 0
BITMAP
C3
42
24
18
18
18
24
42
C3
ENDCHAR
STARTCHAR y
ENCODING 121
SWIDTH 602 0
DWIDTH 10 0
BBX 8 12 1 -3
BITMAP
81
42
42
42
24
24
14
18
18
08
10
70
ENDCHAR
STARTCHAR z
ENCODING 122
SWIDTH 602 0
DWIDTH 10 0
BBX 8 9 1 0
BITMAP
FF
01
02
04
18
20
40
80
FF
ENDCHAR
STARTCHAR braceleft
ENCODING 123
SWIDTH 602 0
DWIDTH 10 0
BBX 5 15 2 -3
BITMAP
18
20
20
20
20
20
20
C0
20
20
20
20
20
20
18
ENDCHAR
STARTCHAR bar
ENCODING 124
SWIDTH 602 0
DWIDTH 10 0
BBX 1 16 4 -4
BITMAP
80
80
80
80
80
80
80
80
80
80
80
80
80
80
80
80
ENDCHAR
STARTCHAR braceright
ENCODING 125
SWIDTH 602 0
DWIDTH 10 0
BBX 5 15 2 -3
BITMAP
C0
20
20
20
20
20
20
18
20
20
20
20
20
20
C0
ENDCHAR
STARTCHAR asciitilde
ENCODING 126
SWIDTH 602 0
DWIDTH 10 0
BBX 8 2 1 4
BITMAP
71
8E
ENDCHAR
STARTCHAR nonbreakingspace
ENCODING 160
SWIDTH 602 0
DWIDTH 10 0
BBX 1 1 0 0
BITMAP
00
ENDCHAR
STARTCHAR exclamdown
ENCODING 161
SWIDTH 602 0
DWIDTH 10 0
BBX 1 12 4 0
BITMAP
80
80
00
00
80
80
80
80
80
80
80
80
ENDCHAR
STARTCHAR cent
ENCODING 162
SWIDTH 602 0
DWIDTH 10 0
BBX 7 13 1 -2
BITMAP
08
08
3C
4A
88
88
88
88
C8
6A
3C
08
08
ENDCHAR
STARTCHAR sterling
ENCODING 163
SWIDTH 602 0
DWIDTH 10 0
BBX 7 12 1 0
BITMAP
1C
32
20
20
20
20
FC
20
20
20
20
FE
ENDCHAR
STARTCHAR currency
ENCODING 164
SWIDTH 602 0
DWIDTH 10 0
BBX 7 7 1 2
BITMAP
82
7C
44
44
44
7C
82
ENDCHAR
STARTCHAR yen
ENCODING 165
SWIDTH 602 0
DWIDTH 10 0
BBX 9 12 0 0
BITMAP
8080
4100
6300
2200
1400
7700
0800
7F00
0800
0800
0800
0800
ENDCHAR
STARTCHAR brokenbar
ENCODING 166
SWIDTH 602 0
DWIDTH 10 0
BBX 1 14 4 -3
BITMAP
80
80
80
80
80
80
00
00
80
80
80
80
80
80
ENDCHAR
STARTCHAR section
ENCODING 167
SWIDTH 602 0
DWIDTH 10 0
BBX 7 14 2 -2
BITMAP
3C
40
40
60
78
8C
82
C2
62
3C
0C
04
04
78
ENDCHAR
STARTCHAR dieresis
ENCODING 168
SWIDTH 602 0
DWIDTH 10 0
BBX 5 2 3 10
BITMAP
D8
D8
ENDCHAR
STARTCHAR copyright
ENCODING 169
SWIDTH 602 0
DWIDTH 10 0
BBX 10 10 0 1
BITMAP
1E00
6180
5E80
B040
A040
A040
B040
5E80
6180
1E00
ENDCHAR
STARTCHAR ordfeminine
ENCODING 170
SWIDTH 602 0
DWIDTH 10 0
BBX 6 8 2 4
BITMAP
F8
04
7C
84
8C
74
00
FC
ENDCHAR
STARTCHAR guillemotleft
ENCODING 171
SWIDTH 602 0
DWIDTH 10 0
BBX 8 7 1 1
BITMAP
11
33
66
88
66
33
11
ENDCHAR
STARTCHAR logicalnot
ENCODING 172
SWIDTH 602 0
DWIDTH 10 0
BBX 8 4 1 3
BITMAP
FF
01
01
01
ENDCHAR
STARTCHAR sfthyphen
ENCODING 173
SWIDTH 602 0
DWIDTH 10 0
BBX 4 1 3 4
BITMAP
F0
ENDCHAR
STARTCHAR registered
ENCODING 174
SWIDTH 602 0
DWIDTH 10 0
BBX 10 10 0 1
BITMAP
1E00
6180
5E80
9240
9C40
9440
9240
5280
6180
1E00
ENDCHAR
STARTCHAR macron
ENCODING 175
SWIDTH 602 0
DWIDTH 10 0
BBX 5 1 2 11
BITMAP
F8
ENDCHAR
STARTCHAR degree
ENCODING 176
SWIDTH 602 0
DWIDTH 10 0
BBX 5 5 2 7
BITMAP
70
88
88
88
70
ENDCHAR
STARTCHAR plusminus
ENCODING 177
SWIDTH 602 0
DWIDTH 10 0
BBX 7 10 1 0
BITMAP
10
10
10
FE
10
10
10
00
00
FE
ENDCHAR
STARTCHAR twosuperior
ENCODING 178
SWIDTH 602 0
DWIDTH 10 0
BBX 4 7 3 5
BITMAP
E0
10
10
30
60
C0
F0
ENDCHAR
STARTCHAR threesuperior
ENCODING 179
SWIDTH 602 0
DWIDTH 10 0
BBX 5 7 3 5
BITMAP
F0
08
08
70
08
08
F0
ENDCHAR
STARTCHAR acute
ENCODING 180
SWIDTH 602 0
DWIDTH 10 0
BBX 4 3 4 10
BITMAP
30
60
C0
ENDCHAR
STARTCHAR mu
ENCODING 181
SWIDTH 602 0
DWIDTH 10 0
BBX 9 12 1 -3
BITMAP
8100
8100
8100
8100
8100
8100
8100
C300
BD80
8000
8000
8000
ENDCHAR
STARTCHAR paragraph
ENCODING 182
SWIDTH 602 0
DWIDTH 10 0
BBX 8 14 1 -2
BITMAP
3F
79
F9
F9
F9
79
39
09
09
09
09
09
09
09
ENDCHAR
STARTCHAR periodcentered
ENCODING 183
SWIDTH 602 0
DWIDTH 10 0
BBX 2 2 4 5
BITMAP
C0
C0
ENDCHAR
STARTCHAR cedilla
ENCODING 184
SWIDTH 602 0
DWIDTH 10 0
BBX 3 3 3 -3
BITMAP
40
20
E0
ENDCHAR
STARTCHAR onesuperior
ENCODING 185
SWIDTH 602 0
DWIDTH 10 0
BBX 5 7 2 5
BITMAP
E0
20
20
20
20
20
F8
ENDCHAR
STARTCHAR ordmasculine
ENCODING 186
SWIDTH 602 0
DWIDTH 10 0
BBX 6 8 2 4
BITMAP
78
CC
84
84
CC
78
00
FC
ENDCHAR
STARTCHAR guillemotright
ENCODING 187
SWIDTH 602 0
DWIDTH 10 0
BBX 8 7 2 1
BITMAP
88
CC
66
11
66
CC
88
ENDCHAR
STARTCHAR onequarter
ENCODING 188
SWIDTH 602 0
DWIDTH 10 0
BBX 9 15 0 -2
BITMAP
E000
2000
2000
2000
2000
2000
F980
3E00
C600
0600
0A00
0A00
1200
1F00
0200
ENDCHAR
STARTCHAR onehalf
ENCODING 189
SWIDTH 602 0
DWIDTH 10 0
BBX 9 15 0 -2
BITMAP
E000
2000
2000
2000
2000
2000
F980
3E00
C700
0080
0080
0180
0300
0600
0780
ENDCHAR
STARTCHAR threequarters
ENCODING 190
SWIDTH 602 0
DWIDTH 10 0
BBX 9 15 0 -2
BITMAP
7800
0400
0400
3800
0400
0400
7980
3E00
C600
0600
0A00
0A00
1200
1F00
0200
ENDCHAR
STARTCHAR questiondown
ENCODING 191
SWIDTH 602 0
DWIDTH 10 0
BBX 6 12 1 0
BITMAP
10
10
00
10
10
10
60
C0
80
80
C4
78
ENDCHAR
STARTCHAR Agrave
ENCODING 192
SWIDTH 602 0
DWIDTH 10 0
BBX 8 15 1 0
BITMAP
30
18
00
18
18
3C
24
24
24
42
42
7E
42
81
81
ENDCHAR
STARTCHAR Aacute
ENCODING 193
SWIDTH 602 0
DWIDTH 10 0
BBX 8 15 1 0
BITMAP
0C
18
00
18
18
3C
24
24
24
42
42
7E
42
81
81
ENDCHAR
STARTCHAR Acircumflex
ENCODING 194
SWIDTH 602 0
DWIDTH 10 0
BBX 8 15 1 0
BITMAP
38
6C
00
18
18
3C
24
24
24
42
42
7E
42
81
81
ENDCHAR
STARTCHAR Atilde
ENCODING 195
SWIDTH 602 0
DWIDTH 10 0
BBX 8 15 1 0
BITMAP
74
5C
00
18
18
3C
24
24
24
42
42
7E
42
81
81
ENDCHAR
STARTCHAR Adieresis
ENCODING 196
SWIDTH 602 0
DWIDTH 10 0
BBX 8 15 1 0
BITMAP
36
36
00
18
18
3C
24
24
24
42
42
7E
42
81
81
ENDCHAR
STARTCHAR Aring
ENCODING 197
SWIDTH 602 0
DWIDTH 10 0
BBX 8 15 1 0
BITMAP
18
24
24
18
18
18
24
24
24
42
42
7E
42
81
81
ENDCHAR
STARTCHAR AE
ENCODING 198
SWIDTH 602 0
DWIDTH 10 0
BBX 9 12 0 0
BITMAP
1F80
1400
1400
2400
2400
2780
6400
4400
7C00
4400
8400
8780
ENDCHAR
STARTCHAR Ccedilla
ENCODING 199
SWIDTH 602 0
DWIDTH 10 0
BBX 8 15 1 -3
BITMAP
1E
63
40
80
80
80
80
80
80
40
63
1E
08
04
1C
ENDCHAR
STARTCHAR Egrave
ENCODING 200
SWIDTH 602 0
DWIDTH 10 0
BBX 8 15 1 0
BITMAP
30
18
00
FF
80
80
80
80
FF
80
80
80
80
80
FF
ENDCHAR
STARTCHAR Eacute
ENCODING 201
SWIDTH 602 0
DWIDTH 10 0
BBX 8 15 1 0
BITMAP
0C
18
00
FF
80
80
80
80
FF
80
80
80
80
80
FF
ENDCHAR
STARTCHAR Ecircumflex
ENCODING 202
SWIDTH 602 0
DWIDTH 10 0
BBX 8 15 1 0
BITMAP
38
6C
00
FF
80
80
80
80
FF
80
80
80
80
80
FF
ENDCHAR
STARTCHAR Edieresis
ENCODING 203
SWIDTH 602 0
DWIDTH 10 0
BBX 8 15 1 0
BITMAP
36
36
00
FF
80
80
80
80
FF
80
80
80
80
80
FF
ENDCHAR
STARTCHAR Igrave
ENCODING 204
SWIDTH 602 0
DWIDTH 10 0
BBX 5 15 2 0
BITMAP
60
30
00
F8
20
20
20
20
20
20
20
20
20
20
F8
ENDCHAR
STARTCHAR Iacute
ENCODING 205
SWIDTH 602 0
DWIDTH 10 0
BBX 5 15 2 0
BITMAP
18
30
00
F8
20
20
20
20
20
20
20
20
20
20
F8
ENDCHAR
STARTCHAR Icircumflex
ENCODING 206
SWIDTH 602 0
DWIDTH 10 0
BBX 5 15 2 0
BITMAP
70
D8
00
F8
20
20
20
20
20
20
20
20
20
20
F8
ENDCHAR
STARTCHAR Idieresis
ENCODING 207
SWIDTH 602 0
DWIDTH 10 0
BBX 6 15 2 0
BITMAP
6C
6C
00
F8
20
20
20
20
20
20
20
20
20
20
F8
ENDCHAR
STARTCHAR Eth
ENCODING 208
SWIDTH 602 0
DWIDTH 10 0
BBX 9 12 0 0
BITMAP
7C00
4300
4100
4080
4080
F080
4080
4080
4080
4100
4300
7C00
ENDCHAR
STARTCHAR Ntilde
ENCODING 209
SWIDTH 602 0
DWIDTH 10 0
BBX 8 15 1 0
BITMAP
74
5C
00
C1
C1
A1
A1
91
91
89
89
85
85
83
83
ENDCHAR
STARTCHAR Ograve
ENCODING 210
SWIDTH 602 0
DWIDTH 10 0
BBX 8 15 1 0
BITMAP
30
18
00
3C
42
C3
81
81
81
81
81
81
C3
42
3C
ENDCHAR
STARTCHAR Oacute
ENCODING 211
SWIDTH 602 0
DWIDTH 10 0
BBX 8 15 1 0
BITMAP
0C
18
00
3C
42
C3
81
81
81
81
81
81
C3
42
3C
ENDCHAR
STARTCHAR Ocircumflex
ENCODING 212
SWIDTH 602 0
DWIDTH 10 0
BBX 8 15 1 0
BITMAP
38
6C
00
3C
42
C3
81
81
81
81
81
81
C3
42
3C
ENDCHAR
STARTCHAR Otilde
ENCODING 213
SWIDTH 602 0
DWIDTH 10 0
BBX 8 15 1 0
BITMAP
74
5C
00
3C
42
C3
81
81
81
81
81
81
C3
42
3C
ENDCHAR
STARTCHAR Odieresis
ENCODING 214
SWIDTH 602 0
DWIDTH 10 0
BBX 8 15 1 0
BITMAP
36
36
00
3C
42
C3
81
81
81
81
81
81
C3
42
3C
ENDCHAR
STARTCHAR multiply
ENCODING 215
SWIDTH 602 0
DWIDTH 10 0
BBX 7 7 1 2
BITMAP
82
44
28
10
28
44
82
ENDCHAR
STARTCHAR Oslash
ENCODING 216
SWIDTH 602 0
DWIDTH 10 0
BBX 9 12 0 0
BITMAP
1F80
2180
2180
4380
4680
4480
4880
5080
6080
6100
6100
BE00
ENDCHAR
STARTCHAR Ugrave
ENCODING 217
SWIDTH 602 0
DWIDTH 10 0
BBX 8 15 1 0
BITMAP
30
18
00
81
81
81
81
81
81
81
81
81
81
42
3C
ENDCHAR
STARTCHAR Uacute
ENCODING 218
SWIDTH 602 0
DWIDTH 10 0
BBX 8 15 1 0
BITMAP
0C
18
00
81
81
81
81
81
81
81
81
81
81
42
3C
ENDCHAR
STARTCHAR Ucircumflex
ENCODING 219
SWIDTH 602 0
DWIDTH 10 0
BBX 8 15 1 0
BITMAP
38
6C
00
81
81
81
81
81
81
81
81
81
81
42
3C
ENDCHAR
STARTCHAR Udieresis
ENCODING 220
SWIDTH 602 0
DWIDTH 10 0
BBX 8 15 1 0
BITMAP
36
36
00
81
81
81
81
81
81
81
81
81
81
42
3C
ENDCHAR
STARTCHAR Yacute
ENCODING 221
SWIDTH 602 0
DWIDTH 10 0
BBX 9 15 0 0
BITMAP
0600
0C00
0000
8080
4100
2200
2200
1400
1400
0800
0800
0800
0800
0800
0800
ENDCHAR
STARTCHAR Thorn
ENCODING 222
SWIDTH 602 0
DWIDTH 10 0
BBX 8 12 1 0
BITMAP
80
80
FC
83
81
81
81
83
FC
80
80
80
ENDCHAR
STARTCHAR germandbls
ENCODING 223
SWIDTH 602 0
DWIDTH 10 0
BBX 8 12 1 0
BITMAP
7C
C6
82
8C
90
90
98
8E
83
81
81
BE
ENDCHAR
STARTCHAR agrave
ENCODING 224
SWIDTH 602 0
DWIDTH 10 0
BBX 8 13 1 0
BITMAP
60
30
18
00
3E
43
01
3F
C1
81
83
C7
7D
ENDCHAR
STARTCHAR aacute
ENCODING 225
SWIDTH 602 0
DWIDTH 10 0
BBX 8 13 1 0
BITMAP
06
0C
18
00
3E
43
01
3F
C1
81
83
C7
7D
ENDCHAR
STARTCHAR acircumflex
ENCODING 226
SWIDTH 602 0
DWIDTH 10 0
BBX 8 13 1 0
BITMAP
10
28
44
00
3E
43
01
3F
C1
81
83
C7
7D
ENDCHAR
STARTCHAR atilde
ENCODING 227
SWIDTH 602 0
DWIDTH 10 0
BBX 8 12 1 0
BITMAP
74
5C
00
3E
43
01
3F
C1
81
83
C7
7D
ENDCHAR
STARTCHAR adieresis
ENCODING 228
SWIDTH 602 0
DWIDTH 10 0
BBX 8 12 1 0
BITMAP
36
36
00
3E
43
01
3F
C1
81
83
C7
7D
ENDCHAR
STARTCHAR aring
ENCODING 229
SWIDTH 602 0
DWIDTH 10 0
BBX 8 14 1 0
BITMAP
18
24
24
18
00
3E
43
01
3F
C1
81
83
C7
7D
ENDCHAR
STARTCHAR ae
ENCODING 230
SWIDTH 602 0
DWIDTH 10 0
BBX 8 9 1 0
BITMAP
6E
11
11
11
7F
90
90
91
6E
ENDCHAR
STARTCHAR ccedilla
ENCODING 231
SWIDTH 602 0
DWIDTH 10 0
BBX 7 12 1 -3
BITMAP
3C
42
80
80
80
80
80
42
3C
08
04
1C
ENDCHAR
STARTCHAR egrave
ENCODING 232
SWIDTH 602 0
DWIDTH 10 0
BBX 8 13 1 0
BITMAP
60
30
18
00
3C
42
81
81
FF
80
80
41
3E
ENDCHAR
STARTCHAR eacute
ENCODING 233
SWIDTH 602 0
DWIDTH 10 0
BBX 8 13 1 0
BITMAP
06
0C
18
00
3C
42
81
81
FF
80
80
41
3E
ENDCHAR
STARTCHAR ecircumflex
ENCODING 234
SWIDTH 602 0
DWIDTH 10 0
BBX 8 13 1 0
BITMAP
10
28
44
00
3C
42
81
81
FF
80
80
41
3E
ENDCHAR
STARTCHAR edieresis
ENCODING 235
SWIDTH 602 0
DWIDTH 10 0
BBX 8 12 1 0
BITMAP
36
36
00
3C
42
81
81
FF
80
80
41
3E
ENDCHAR
STARTCHAR igrave
ENCODING 236
SWIDTH 602 0
DWIDTH 10 0
BBX 7 13 1 0
BITMAP
60
30
18
00
70
10
10
10
10
10
10
10
FE
ENDCHAR
STARTCHAR iacute
ENCODING 237
SWIDTH 602 0
DWIDTH 10 0
BBX 7 13 1 0
BITMAP
06
0C
18
00
70
10
10
10
10
10
10
10
FE
ENDCHAR
STARTCHAR icircumflex
ENCODING 238
SWIDTH 602 0
DWIDTH 10 0
BBX 7 13 1 0
BITMAP
10
28
44
00
70
10
10
10
10
10
10
10
FE
ENDCHAR
STARTCHAR idieresis
ENCODING 239
SWIDTH 602 0
DWIDTH 10 0
BBX 7 12 1 0
BITMAP
36
36
00
70
10
10
10
10
10
10
10
FE
ENDCHAR
STARTCHAR eth
ENCODING 240
SWIDTH 602 0
DWIDTH 10 0
BBX 8 12 1 0
BITMAP
32
3C
44
3E
42
81
81
81
81
81
42
3C
ENDCHAR
STARTCHAR ntilde
ENCODING 241
SWIDTH 602 0
DWIDTH 10 0
BBX 8 12 1 0
BITMAP
74
5C
00
BE
C3
81
81
81
81
81
81
81
ENDCHAR
STARTCHAR ograve
ENCODING 242
SWIDTH 602 0
DWIDTH 10 0
BBX 8 13 1 0
BITMAP
60
30
18
00
3C
42
81
81
81
81
81
42
3C
ENDCHAR
STARTCHAR oacute
ENCODING 243
SWIDTH 602 0
DWIDTH 10 0
BBX 8 13 1 0
BITMAP
06
0C
18
00
3C
42
81
81
81
81
81
42
3C
ENDCHAR
STARTCHAR ocircumflex
ENCODING 244
SWIDTH 602 0
DWIDTH 10 0
BBX 8 13 1 0
BITMAP
10
28
44
00
3C
42
81
81
81
81
81
42
3C
ENDCHAR
STARTCHAR otilde
ENCODING 245
SWIDTH 602 0
DWIDTH 10 0
BBX 8 12 1 0
BITMAP
74
5C
00
3C
42
81
81
81
81
81
42
3C
ENDCHAR
STARTCHAR odieresis
ENCODING 246
SWIDTH 602 0
DWIDTH 10 0
BBX 8 12 1 0
BITMAP
36
36
00
3C
42
81
81
81
81
81
42
3C
ENDCHAR
STARTCHAR divide
ENCODING 247
SWIDTH 602 0
DWIDTH 10 0
BBX 8 7 1 1
BITMAP
18
18
00
FF
00
18
18
ENDCHAR
STARTCHAR oslash
ENCODING 248
SWIDTH 602 0
DWIDTH 10 0
BBX 8 9 1 0
BITMAP
3F
43
87
8D
99
B1
E1
C2
FC
ENDCHAR
STARTCHAR ugrave
ENCODING 249
SWIDTH 602 0
DWIDTH 10 0
BBX 8 13 1 0
BITMAP
60
30
18
00
81
81
81
81
81
81
81
C3
7D
ENDCHAR
STARTCHAR uacute
ENCODING 250
SWIDTH 602 0
DWIDTH 10 0
BBX 8 13 1 0
BITMAP
06
0C
18
00
81
81
81
81
81
81
81
C3
7D
ENDCHAR
STARTCHAR ucircumflex
ENCODING 251
SWIDTH 602 0
DWIDTH 10 0
BBX 8 13 1 0
BITMAP
10
28
44
00
81
81
81
81
81
81
81
C3
7D
ENDCHAR
STARTCHAR udieresis
ENCODING 252
SWIDTH 602 0
DWIDTH 10 0
BBX 8 12 1 0
BITMAP
36
36
00
81
81
81
81
81
81
81
C3
7D
ENDCHAR
STARTCHAR yacute
ENCODING 253
SWIDTH 602 0
DWIDTH 10 0
BBX 8 16 1 -3
BITMAP
06
0C
18
00
81
42
42
42
24
24
14
18
18
08
10
70
ENDCHAR
STARTCHAR thorn
ENCODING 254
SWIDTH 602 0
DWIDTH 10 0
BBX 8 15 1 -3
BITMAP
80
80
80
BC
C2
81
81
81
81
81
C2
BC
80
80
80
ENDCHAR
STARTCHAR ydieresis
ENCODING 255
SWIDTH 602 0
DWIDTH 10 0
BBX 8 15 1 -3
BITMAP
36
36
00
81
42
42
42
24
24
14
18
18
08
10
70
ENDCHAR
STARTCHAR .notdef
ENCODING -1
SWIDTH 602 0
DWIDTH 10 0
BBX 8 14 1 -3
BITMAP
FF
81
81
81
81
81
81
81
81
81
81
81
81
FF
ENDCHAR
STARTCHAR .null
ENCODING -1
SWIDTH 0 0
DWIDTH 0 0
BBX 1 1 0 0
BITMAP
00
ENDCHAR
STARTCHAR nonmarkingreturn
ENCODING -1
SWIDTH 602 0
DWIDTH 10 0
BBX 1 1 0 0
BITMAP
00
ENDCHAR
STARTCHAR dagger
ENCODING -1
SWIDTH 602 0
DWIDTH 10 0
BBX 7 14 1 -2
BITMAP
10
10
10
FE
10
10
10
10
10
10
10
10
10
10
ENDCHAR
STARTCHAR bullet
ENCODING -1
SWIDTH 602 0
DWIDTH 10 0
BBX 5 5 3 3
BITMAP
70
F8
F8
F8
70
ENDCHAR
STARTCHAR trademark
ENCODING -1
SWIDTH 602 0
DWIDTH 10 0
BBX 9 5 0 7
BITMAP
ED80
4D80
4F80
4A80
4880
ENDCHAR
STARTCHAR notequal
ENCODING -1
SWIDTH 602 0
DWIDTH 10 0
BBX 8 8 1 1
BITMAP
02
06
FF
08
10
FF
60
40
ENDCHAR
STARTCHAR infinity
ENCODING -1
SWIDTH 602 0
DWIDTH 10 0
BBX 9 6 0 2
BITMAP
7700
9480
8880
8880
9480
7700
ENDCHAR
STARTCHAR lessequal
ENCODING -1
SWIDTH 602 0
DWIDTH 10 0
BBX 8 9 1 0
BITMAP
01
0F
78
C0
78
0F
01
00
FF
ENDCHAR
STARTCHAR greaterequal
ENCODING -1
SWIDTH 602 0
DWIDTH 10 0
BBX 8 9 1 0
BITMAP
80
F0
1E
03
1E
F0
80
00
FF
ENDCHAR
STARTCHAR partialdiff
ENCODING -1
SWIDTH 602 0
DWIDTH 10 0
BBX 7 10 1 0
BITMAP
38
64
02
02
7A
C6
86
84
8C
78
ENDCHAR
STARTCHAR summation
ENCODING -1
SWIDTH 602 0
DWIDTH 10 0
BBX 7 15 1 -3
BITMAP
FE
C0
40
20
30
10
08
08
18
10
20
20
40
C0
FE
ENDCHAR
STARTCHAR product
ENCODING -1
SWIDTH 602 0
DWIDTH 10 0
BBX 7 15 1 -3
BITMAP
FE
82
82
82
82
82
82
82
82
82
82
82
82
82
82
ENDCHAR
STARTCHAR pi
ENCODING -1
SWIDTH 602 0
DWIDTH 10 0
BBX 8 9 1 0
BITMAP
FF
42
42
42
42
42
42
42
43
ENDCHAR
STARTCHAR integral
ENCODING -1
SWIDTH 602 0
DWIDTH 10 0
BBX 7 15 1 -3
BITMAP
0E
08
10
10
10
10
10
10
10
10
10
10
10
20
E0
ENDCHAR
STARTCHAR Omega
ENCODING -1
SWIDTH 602 0
DWIDTH 10 0
BBX 8 11 1 0
BITMAP
3C
42
C3
81
81
81
81
81
42
42
E7
ENDCHAR
STARTCHAR radical
ENCODING -1
SWIDTH 602 0
DWIDTH 10 0
BBX 9 14 0 -1
BITMAP
0080
0100
0100
0100
0300
0200
E200
2200
2400
1400
1400
1C00
1800
0800
ENDCHAR
STARTCHAR florin
ENCODING -1
SWIDTH 602 0
DWIDTH 10 0
BBX 9 15 0 -3
BITMAP
0380
0400
0400
0400
0800
3F00
0800
0800
0800
0800
0800
1000
1000
1000
E000
ENDCHAR
STARTCHAR approxequal
ENCODING -1
SWIDTH 602 0
DWIDTH 10 0
BBX 8 5 1 3
BITMAP
71
8E
00
71
8E
ENDCHAR
STARTCHAR Delta
ENCODING -1
SWIDTH 602 0
DWIDTH 10 0
BBX 10 11 0 0
BITMAP
0C00
0C00
1E00
1E00
3F00
3300
3300
6180
6180
6180
FFC0
ENDCHAR
STARTCHAR ellipsis
ENCODING -1
SWIDTH 602 0
DWIDTH 10 0
BBX 8 2 1 0
BITMAP
DB
DB
ENDCHAR
STARTCHAR OE
ENCODING -1
SWIDTH 602 0
DWIDTH 10 0
BBX 8 12 1 0
BITMAP
3F
48
88
88
88
8F
88
88
88
88
48
3F
ENDCHAR
STARTCHAR oe
ENCODING -1
SWIDTH 602 0
DWIDTH 10 0
BBX 8 9 1 0
BITMAP
6E
91
91
91
9F
90
90
91
6E
ENDCHAR
STARTCHAR endash
ENCODING -1
SWIDTH 602 0
DWIDTH 10 0
BBX 10 1 0 4
BITMAP
FFC0
ENDCHAR
STARTCHAR emdash
ENCODING -1
SWIDTH 602 0
DWIDTH 10 0
BBX 10 1 0 4
BITMAP
FFC0
ENDCHAR
STARTCHAR quotedblleft
ENCODING -1
SWIDTH 602 0
DWIDTH 10 0
BBX 7 5 1 7
BITMAP
22
66
CC
CC
CC
ENDCHAR
STARTCHAR quotedblright
ENCODING -1
SWIDTH 602 0
DWIDTH 10 0
BBX 7 5 1 7
BITMAP
66
66
66
CC
88
ENDCHAR
STARTCHAR quoteleft
ENCODING -1
SWIDTH 602 0
DWIDTH 10 0
BBX 3 5 4 7
BITMAP
20
60
C0
C0
C0
ENDCHAR
STARTCHAR quoteright
ENCODING -1
SWIDTH 602 0
DWIDTH 10 0
BBX 3 5 3 7
BITMAP
60
60
60
C0
80
ENDCHAR
STARTCHAR lozenge
ENCODING -1
SWIDTH 602 0
DWIDTH 10 0
BBX 8 15 1 -3
BITMAP
18
18
24
24
42
42
81
81
81
42
42
24
24
18
18
ENDCHAR
STARTCHAR Ydieresis
ENCODING -1
SWIDTH 602 0
DWIDTH 10 0
BBX 9 15 0 0
BITMAP
1B00
1B00
0000
8080
4100
2200
2200
1400
1400
0800
0800
0800
0800
0800
0800
ENDCHAR
STARTCHAR fraction
ENCODING -1
SWIDTH 602 0
DWIDTH 10 0
BBX 7 13 1 -1
BITMAP
02
04
04
08
08
10
10
10
20
20
40
40
80
ENDCHAR
STARTCHAR guilsinglleft
ENCODING -1
SWIDTH 602 0
DWIDTH 10 0
BBX 4 7 3 1
BITMAP
10
30
60
80
60
30
10
ENDCHAR
STARTCHAR guilsinglright
ENCODING -1
SWIDTH 602 0
DWIDTH 10 0
BBX 4 7 3 1
BITMAP
80
C0
60
10
60
C0
80
ENDCHAR
STARTCHAR fi
ENCODING -1
SWIDTH 602 0
DWIDTH 10 0
BBX 9 12 0 0
BITMAP
3880
4080
4000
FF80
4080
4080
4080
4080
4080
4080
4080
4080
ENDCHAR
STARTCHAR fl
ENCODING -1
SWIDTH 602 0
DWIDTH 10 0
BBX 9 12 0 0
BITMAP
3F80
4080
4080
F080
4080
4080
4080
4080
4080
4080
4080
4080
ENDCHAR
STARTCHAR daggerdbl
ENCODING -1
SWIDTH 602 0
DWIDTH 10 0
BBX 7 14 1 -2
BITMAP
10
10
10
FE
10
10
10
10
10
10
FE
10
10
10
ENDCHAR
STARTCHAR quotesinglbase
ENCODING -1
SWIDTH 602 0
DWIDTH 10 0
BBX 3 5 3 -3
BITMAP
60
60
60
C0
80
ENDCHAR
STARTCHAR quotedblbase
ENCODING -1
SWIDTH 602 0
DWIDTH 10 0
BBX 7 5 1 -3
BITMAP
66
66
66
CC
88
ENDCHAR
STARTCHAR perthousand
ENCODING -1
SWIDTH 602 0
DWIDTH 10 0
BBX 9 12 0 0
BITMAP
6000
9000
9000
6300
0C00
3000
E000
8000
6300
9480
9480
6300
ENDCHAR
STARTCHAR dotlessi
ENCODING -1
SWIDTH 602 0
DWIDTH 10 0
BBX 7 9 1 0
BITMAP
70
10
10
10
10
10
10
10
FE
ENDCHAR
STARTCHAR circumflex
ENCODING -1
SWIDTH 602 0
DWIDTH 10 0
BBX 5 3 2 10
BITMAP
20
50
88
ENDCHAR
STARTCHAR tilde
ENCODING -1
SWIDTH 602 0
DWIDTH 10 0
BBX 5 2 2 10
BITMAP
E8
B8
ENDCHAR
STARTCHAR breve
ENCODING -1
SWIDTH 602 0
DWIDTH 10 0
BBX 5 2 2 11
BITMAP
88
70
ENDCHAR
STARTCHAR dotaccent
ENCODING -1
SWIDTH 602 0
DWIDTH 10 0
BBX 2 2 4 10
BITMAP
C0
C0
ENDCHAR
STARTCHAR ring
ENCODING -1
SWIDTH 602 0
DWIDTH 10 0
BBX 4 4 3 10
BITMAP
60
90
90
60
ENDCHAR
STARTCHAR hungarumlaut
ENCODING -1
SWIDTH 602 0
DWIDTH 10 0
BBX 6 3 3 10
BITMAP
6C
48
90
ENDCHAR
STARTCHAR ogonek
ENCODING -1
SWIDTH 602 0
DWIDTH 10 0
BBX 3 3 3 -3
BITMAP
80
80
E0
ENDCHAR
STARTCHAR caron
ENCODING -1
SWIDTH 602 0
DWIDTH 10 0
BBX 5 3 2 10
BITMAP
88
50
20
ENDCHAR
STARTCHAR Lslash
ENCODING -1
SWIDTH 602 0
DWIDTH 10 0
BBX 9 12 0 0
BITMAP
4000
4000
4000
4000
5800
7000
4000
C000
4000
4000
4000
7F80
ENDCHAR
STARTCHAR lslash
ENCODING -1
SWIDTH 602 0
DWIDTH 10 0
BBX 7 12 1 0
BITMAP
70
10
10
16
1C
10
70
D0
10
10
10
0E
ENDCHAR
STARTCHAR Scaron
ENCODING -1
SWIDTH 602 0
DWIDTH 10 0
BBX 8 15 1 0
BITMAP
6C
38
00
3C
46
80
80
80
70
1E
01
01
81
C3
7C
ENDCHAR
STARTCHAR scaron
ENCODING -1
SWIDTH 602 0
DWIDTH 10 0
BBX 8 13 1 0
BITMAP
44
28
10
00
3E
C1
80
C0
7E
03
01
83
7C
ENDCHAR
STARTCHAR Zcaron
ENCODING -1
SWIDTH 602 0
DWIDTH 10 0
BBX 8 15 1 0
BITMAP
6C
38
00
FF
01
02
04
0C
08
10
30
20
40
80
FF
ENDCHAR
STARTCHAR zcaron
ENCODING -1
SWIDTH 602 0
DWIDTH 10 0
BBX 8 13 1 0
BITMAP
44
28
10
00
FF
01
02
04
18
20
40
80
FF
ENDCHAR
STARTCHAR minus
ENCODING -1
SWIDTH 602 0
DWIDTH 10 0
BBX 8 1 1 4
BITMAP
FF
ENDCHAR
STARTCHAR Gbreve
ENCODING -1
SWIDTH 602 0
DWIDTH 10 0
BBX 8 15 1 0
BITMAP
44
38
00
1E
63
40
80
80
80
87
81
81
41
61
1E
ENDCHAR
STARTCHAR gbreve
ENCODING -1
SWIDTH 602 0
DWIDTH 10 0
BBX 8 16 1 -3
BITMAP
44
38
00
00
3D
43
81
81
81
81
81
43
3D
01
42
3C
ENDCHAR
STARTCHAR Idotaccent
ENCODING -1
SWIDTH 602 0
DWIDTH 10 0
BBX 5 15 2 0
BITMAP
30
30
00
F8
20
20
20
20
20
20
20
20
20
20
F8
ENDCHAR
STARTCHAR Scedilla
ENCODING -1
SWIDTH 602 0
DWIDTH 10 0
BBX 8 15 1 -3
BITMAP
3C
46
80
80
80
70
1E
01
01
81
C3
7C
10
08
38
ENDCHAR
STARTCHAR scedilla
ENCODING -1
SWIDTH 602 0
DWIDTH 10 0
BBX 8 12 1 -3
BITMAP
3E
C1
80
C0
7E
03
01
83
7C
10
08
38
ENDCHAR
STARTCHAR Cacute
ENCODING -1
SWIDTH 602 0
DWIDTH 10 0
BBX 8 15 1 0
BITMAP
06
0C
00
1E
63
40
80
80
80
80
80
80
40
63
1E
ENDCHAR
STARTCHAR cacute
ENCODING -1
SWIDTH 602 0
DWIDTH 10 0
BBX 8 13 1 0
BITMAP
03
06
0C
00
3C
42
80
80
80
80
80
42
3C
ENDCHAR
STARTCHAR Ccaron
ENCODING -1
SWIDTH 602 0
DWIDTH 10 0
BBX 8 15 1 0
BITMAP
36
1C
00
1E
63
40
80
80
80
80
80
80
40
63
1E
ENDCHAR
STARTCHAR ccaron
ENCODING -1
SWIDTH 602 0
DWIDTH 10 0
BBX 7 13 1 0
BITMAP
22
14
08
00
3C
42
80
80
80
80
80
42
3C
ENDCHAR
STARTCHAR dcroat
ENCODING -1
SWIDTH 602 0
DWIDTH 10 0
BBX 10 12 1 0
BITMAP
0100
07C0
0100
3D00
4300
8100
8100
8100
8100
8100
4300
3D00
ENDCHAR
STARTCHAR periodcentered
ENCODING -1
SWIDTH 602 0
DWIDTH 10 0
BBX 2 2 4 5
BITMAP
C0
C0
ENDCHAR
STARTCHAR Euro
ENCODING -1
SWIDTH 602 0
DWIDTH 10 0
BBX 8 12 1 0
BITMAP
1E
31
20
40
40
FC
40
F8
40
20
21
1E
ENDCHAR
STARTCHAR c6459
ENCODING -1
SWIDTH 602 0
DWIDTH 10 0
BBX 5 2 3 10
BITMAP
D8
D8
ENDCHAR
STARTCHAR c6460
ENCODING -1
SWIDTH 602 0
DWIDTH 10 0
BBX 3 2 4 10
BITMAP
60
C0
ENDCHAR
STARTCHAR c6461
ENCODING -1
SWIDTH 602 0
DWIDTH 10 0
BBX 5 2 2 10
BITMAP
E8
B8
ENDCHAR
STARTCHAR c6468
ENCODING -1
SWIDTH 602 0
DWIDTH 10 0
BBX 3 2 3 10
BITMAP
C0
60
ENDCHAR
STARTCHAR c6470
ENCODING -1
SWIDTH 602 0
DWIDTH 10 0
BBX 5 2 2 10
BITMAP
70
D8
ENDCHAR
STARTCHAR c6472
ENCODING -1
SWIDTH 602 0
DWIDTH 10 0
BBX 5 2 2 10
BITMAP
D8
70
ENDCHAR
STARTCHAR c6477
ENCODING -1
SWIDTH 602 0
DWIDTH 10 0
BBX 9 3 0 4
BITMAP
0180
3E00
C000
ENDCHAR
STARTCHAR c6478
ENCODING -1
SWIDTH 602 0
DWIDTH 10 0
BBX 5 7 2 5
BITMAP
30
30
50
50
90
F8
10
ENDCHAR
STARTCHAR c6475
ENCODING -1
SWIDTH 602 0
DWIDTH 10 0
BBX 5 2 2 10
BITMAP
88
70
ENDCHAR
STARTCHAR c6476
ENCODING -1
SWIDTH 602 0
DWIDTH 10 0
BBX 2 2 4 10
BITMAP
C0
C0
ENDCHAR
ENDFONT
